<svg xmlns="http://www.w3.org/2000/svg" width="24" height="24" viewBox="0 0 24 24">
    <g fill="none" fill-rule="evenodd">
        <g fill="#FFF">
            <g>
                <g>
                    <g>
                        <path d="M2 0C.896 0 0 .896 0 2s.896 2 2 2 2-.896 2-2-.896-2-2-2M8 0C6.896 0 6 .896 6 2s.896 2 2 2 2-.896 2-2-.896-2-2-2M14 0c-1.104 0-2 .896-2 2s.896 2 2 2 2-.896 2-2-.896-2-2-2" transform="translate(-991 -1165) translate(687 1148) translate(304 17) translate(4 10)"/>
                    </g>
                </g>
            </g>
        </g>
    </g>
</svg>
